<svg xmlns="http://www.w3.org/2000/svg" viewBox="0 0 152 30" width="152" height="30" shape-rendering="crispEdges" role="img" aria-label="JAVASCRIPT"><rect width="152" height="30" fill="#1a0f2e"/><rect x="0" y="0" width="152" height="30" fill="none" stroke="#c9a227" stroke-width="2"/><rect x="8" y="8" width="10" height="14" fill="#c9a227"/><rect x="28" y="8" width="6" height="2" fill="#e9dcff"/><rect x="30" y="10" width="2" height="2" fill="#e9dcff"/><rect x="30" y="12" width="2" height="2" fill="#e9dcff"/><rect x="30" y="14" width="2" height="2" fill="#e9dcff"/><rect x="30" y="16" width="2" height="2" fill="#e9dcff"/><rect x="24" y="18" width="2" height="2" fill="#e9dcff"/><rect x="30" y="18" width="2" height="2" fill="#e9dcff"/><rect x="26" y="20" width="4" height="2" fill="#e9dcff"/><rect x="38" y="8" width="6" height="2" fill="#e9dcff"/><rect x="36" y="10" width="2" height="2" fill="#e9dcff"/><rect x="44" y="10" width="2" height="2" fill="#e9dcff"/><rect x="36" y="12" width="2" height="2" fill="#e9dcff"/><rect x="44" y="12" width="2" height="2" fill="#e9dcff"/><rect x="36" y="14" width="10" height="2" fill="#e9dcff"/><rect x="36" y="16" width="2" height="2" fill="#e9dcff"/><rect x="44" y="16" width="2" height="2" fill="#e9dcff"/><rect x="36" y="18" width="2" height="2" fill="#e9dcff"/><rect x="44" y="18" width="2" height="2" fill="#e9dcff"/><rect x="36" y="20" width="2" height="2" fill="#e9dcff"/><rect x="44" y="20" width="2" height="2" fill="#e9dcff"/><rect x="48" y="8" width="2" height="2" fill="#e9dcff"/><rect x="56" y="8" width="2" height="2" fill="#e9dcff"/><rect x="48" y="10" width="2" height="2" fill="#e9dcff"/><rect x="56" y="10" width="2" height="2" fill="#e9dcff"/><rect x="48" y="12" width="2" height="2" fill="#e9dcff"/><rect x="56" y="12" width="2" height="2" fill="#e9dcff"/><rect x="48" y="14" width="2" height="2" fill="#e9dcff"/><rect x="56" y="14" width="2" height="2" fill="#e9dcff"/><rect x="48" y="16" width="2" height="2" fill="#e9dcff"/><rect x="56" y="16" width="2" height="2" fill="#e9dcff"/><rect x="50" y="18" width="2" height="2" fill="#e9dcff"/><rect x="54" y="18" width="2" height="2" fill="#e9dcff"/><rect x="52" y="20" width="2" height="2" fill="#e9dcff"/><rect x="62" y="8" width="6" height="2" fill="#e9dcff"/><rect x="60" y="10" width="2" height="2" fill="#e9dcff"/><rect x="68" y="10" width="2" height="2" fill="#e9dcff"/><rect x="60" y="12" width="2" height="2" fill="#e9dcff"/><rect x="68" y="12" width="2" height="2" fill="#e9dcff"/><rect x="60" y="14" width="10" height="2" fill="#e9dcff"/><rect x="60" y="16" width="2" height="2" fill="#e9dcff"/><rect x="68" y="16" width="2" height="2" fill="#e9dcff"/><rect x="60" y="18" width="2" height="2" fill="#e9dcff"/><rect x="68" y="18" width="2" height="2" fill="#e9dcff"/><rect x="60" y="20" width="2" height="2" fill="#e9dcff"/><rect x="68" y="20" width="2" height="2" fill="#e9dcff"/><rect x="74" y="8" width="8" height="2" fill="#e9dcff"/><rect x="72" y="10" width="2" height="2" fill="#e9dcff"/><rect x="72" y="12" width="2" height="2" fill="#e9dcff"/><rect x="74" y="14" width="6" height="2" fill="#e9dcff"/><rect x="80" y="16" width="2" height="2" fill="#e9dcff"/><rect x="80" y="18" width="2" height="2" fill="#e9dcff"/><rect x="72" y="20" width="8" height="2" fill="#e9dcff"/><rect x="86" y="8" width="6" height="2" fill="#e9dcff"/><rect x="84" y="10" width="2" height="2" fill="#e9dcff"/><rect x="92" y="10" width="2" height="2" fill="#e9dcff"/><rect x="84" y="12" width="2" height="2" fill="#e9dcff"/><rect x="84" y="14" width="2" height="2" fill="#e9dcff"/><rect x="84" y="16" width="2" height="2" fill="#e9dcff"/><rect x="84" y="18" width="2" height="2" fill="#e9dcff"/><rect x="92" y="18" width="2" height="2" fill="#e9dcff"/><rect x="86" y="20" width="6" height="2" fill="#e9dcff"/><rect x="96" y="8" width="8" height="2" fill="#e9dcff"/><rect x="96" y="10" width="2" height="2" fill="#e9dcff"/><rect x="104" y="10" width="2" height="2" fill="#e9dcff"/><rect x="96" y="12" width="2" height="2" fill="#e9dcff"/><rect x="104" y="12" width="2" height="2" fill="#e9dcff"/><rect x="96" y="14" width="8" height="2" fill="#e9dcff"/><rect x="96" y="16" width="2" height="2" fill="#e9dcff"/><rect x="100" y="16" width="2" height="2" fill="#e9dcff"/><rect x="96" y="18" width="2" height="2" fill="#e9dcff"/><rect x="102" y="18" width="2" height="2" fill="#e9dcff"/><rect x="96" y="20" width="2" height="2" fill="#e9dcff"/><rect x="104" y="20" width="2" height="2" fill="#e9dcff"/><rect x="108" y="8" width="10" height="2" fill="#e9dcff"/><rect x="112" y="10" width="2" height="2" fill="#e9dcff"/><rect x="112" y="12" width="2" height="2" fill="#e9dcff"/><rect x="112" y="14" width="2" height="2" fill="#e9dcff"/><rect x="112" y="16" width="2" height="2" fill="#e9dcff"/><rect x="112" y="18" width="2" height="2" fill="#e9dcff"/><rect x="108" y="20" width="10" height="2" fill="#e9dcff"/><rect x="120" y="8" width="8" height="2" fill="#e9dcff"/><rect x="120" y="10" width="2" height="2" fill="#e9dcff"/><rect x="128" y="10" width="2" height="2" fill="#e9dcff"/><rect x="120" y="12" width="2" height="2" fill="#e9dcff"/><rect x="128" y="12" width="2" height="2" fill="#e9dcff"/><rect x="120" y="14" width="8" height="2" fill="#e9dcff"/><rect x="120" y="16" width="2" height="2" fill="#e9dcff"/><rect x="120" y="18" width="2" height="2" fill="#e9dcff"/><rect x="120" y="20" width="2" height="2" fill="#e9dcff"/><rect x="132" y="8" width="10" height="2" fill="#e9dcff"/><rect x="136" y="10" width="2" height="2" fill="#e9dcff"/><rect x="136" y="12" width="2" height="2" fill="#e9dcff"/><rect x="136" y="14" width="2" height="2" fill="#e9dcff"/><rect x="136" y="16" width="2" height="2" fill="#e9dcff"/><rect x="136" y="18" width="2" height="2" fill="#e9dcff"/><rect x="136" y="20" width="2" height="2" fill="#e9dcff"/></svg>