<svg xmlns="http://www.w3.org/2000/svg" viewBox="0 0 68 30" width="68" height="30" shape-rendering="crispEdges" role="img" aria-label="CSS"><rect width="68" height="30" fill="#1a0f2e"/><rect x="0" y="0" width="68" height="30" fill="none" stroke="#3f7fb5" stroke-width="2"/><rect x="8" y="8" width="10" height="14" fill="#3f7fb5"/><rect x="26" y="8" width="6" height="2" fill="#e9dcff"/><rect x="24" y="10" width="2" height="2" fill="#e9dcff"/><rect x="32" y="10" width="2" height="2" fill="#e9dcff"/><rect x="24" y="12" width="2" height="2" fill="#e9dcff"/><rect x="24" y="14" width="2" height="2" fill="#e9dcff"/><rect x="24" y="16" width="2" height="2" fill="#e9dcff"/><rect x="24" y="18" width="2" height="2" fill="#e9dcff"/><rect x="32" y="18" width="2" height="2" fill="#e9dcff"/><rect x="26" y="20" width="6" height="2" fill="#e9dcff"/><rect x="38" y="8" width="8" height="2" fill="#e9dcff"/><rect x="36" y="10" width="2" height="2" fill="#e9dcff"/><rect x="36" y="12" width="2" height="2" fill="#e9dcff"/><rect x="38" y="14" width="6" height="2" fill="#e9dcff"/><rect x="44" y="16" width="2" height="2" fill="#e9dcff"/><rect x="44" y="18" width="2" height="2" fill="#e9dcff"/><rect x="36" y="20" width="8" height="2" fill="#e9dcff"/><rect x="50" y="8" width="8" height="2" fill="#e9dcff"/><rect x="48" y="10" width="2" height="2" fill="#e9dcff"/><rect x="48" y="12" width="2" height="2" fill="#e9dcff"/><rect x="50" y="14" width="6" height="2" fill="#e9dcff"/><rect x="56" y="16" width="2" height="2" fill="#e9dcff"/><rect x="56" y="18" width="2" height="2" fill="#e9dcff"/><rect x="48" y="20" width="8" height="2" fill="#e9dcff"/></svg>