<svg xmlns="http://www.w3.org/2000/svg" viewBox="0 0 220 36" width="220" height="36" shape-rendering="crispEdges" role="img" aria-label="LETS TALK"><rect x="4" y="4" width="4" height="4" fill="#6a3fa0"/><rect x="4" y="8" width="4" height="4" fill="#6a3fa0"/><rect x="4" y="12" width="4" height="4" fill="#6a3fa0"/><rect x="4" y="16" width="4" height="4" fill="#6a3fa0"/><rect x="4" y="20" width="4" height="4" fill="#6a3fa0"/><rect x="4" y="24" width="4" height="4" fill="#6a3fa0"/><rect x="4" y="28" width="20" height="4" fill="#6a3fa0"/><rect x="28" y="4" width="20" height="4" fill="#6a3fa0"/><rect x="28" y="8" width="4" height="4" fill="#6a3fa0"/><rect x="28" y="12" width="16" height="4" fill="#6a3fa0"/><rect x="28" y="16" width="4" height="4" fill="#6a3fa0"/><rect x="28" y="20" width="4" height="4" fill="#6a3fa0"/><rect x="28" y="24" width="4" height="4" fill="#6a3fa0"/><rect x="28" y="28" width="20" height="4" fill="#6a3fa0"/><rect x="52" y="4" width="20" height="4" fill="#6a3fa0"/><rect x="60" y="8" width="4" height="4" fill="#6a3fa0"/><rect x="60" y="12" width="4" height="4" fill="#6a3fa0"/><rect x="60" y="16" width="4" height="4" fill="#6a3fa0"/><rect x="60" y="20" width="4" height="4" fill="#6a3fa0"/><rect x="60" y="24" width="4" height="4" fill="#6a3fa0"/><rect x="60" y="28" width="4" height="4" fill="#6a3fa0"/><rect x="80" y="4" width="16" height="4" fill="#6a3fa0"/><rect x="76" y="8" width="4" height="4" fill="#6a3fa0"/><rect x="76" y="12" width="4" height="4" fill="#6a3fa0"/><rect x="80" y="16" width="12" height="4" fill="#6a3fa0"/><rect x="92" y="20" width="4" height="4" fill="#6a3fa0"/><rect x="92" y="24" width="4" height="4" fill="#6a3fa0"/><rect x="76" y="28" width="16" height="4" fill="#6a3fa0"/><rect x="124" y="4" width="20" height="4" fill="#6a3fa0"/><rect x="132" y="8" width="4" height="4" fill="#6a3fa0"/><rect x="132" y="12" width="4" height="4" fill="#6a3fa0"/><rect x="132" y="16" width="4" height="4" fill="#6a3fa0"/><rect x="132" y="20" width="4" height="4" fill="#6a3fa0"/><rect x="132" y="24" width="4" height="4" fill="#6a3fa0"/><rect x="132" y="28" width="4" height="4" fill="#6a3fa0"/><rect x="152" y="4" width="12" height="4" fill="#6a3fa0"/><rect x="148" y="8" width="4" height="4" fill="#6a3fa0"/><rect x="164" y="8" width="4" height="4" fill="#6a3fa0"/><rect x="148" y="12" width="4" height="4" fill="#6a3fa0"/><rect x="164" y="12" width="4" height="4" fill="#6a3fa0"/><rect x="148" y="16" width="20" height="4" fill="#6a3fa0"/><rect x="148" y="20" width="4" height="4" fill="#6a3fa0"/><rect x="164" y="20" width="4" height="4" fill="#6a3fa0"/><rect x="148" y="24" width="4" height="4" fill="#6a3fa0"/><rect x="164" y="24" width="4" height="4" fill="#6a3fa0"/><rect x="148" y="28" width="4" height="4" fill="#6a3fa0"/><rect x="164" y="28" width="4" height="4" fill="#6a3fa0"/><rect x="172" y="4" width="4" height="4" fill="#6a3fa0"/><rect x="172" y="8" width="4" height="4" fill="#6a3fa0"/><rect x="172" y="12" width="4" height="4" fill="#6a3fa0"/><rect x="172" y="16" width="4" height="4" fill="#6a3fa0"/><rect x="172" y="20" width="4" height="4" fill="#6a3fa0"/><rect x="172" y="24" width="4" height="4" fill="#6a3fa0"/><rect x="172" y="28" width="20" height="4" fill="#6a3fa0"/><rect x="196" y="4" width="4" height="4" fill="#6a3fa0"/><rect x="212" y="4" width="4" height="4" fill="#6a3fa0"/><rect x="196" y="8" width="4" height="4" fill="#6a3fa0"/><rect x="208" y="8" width="4" height="4" fill="#6a3fa0"/><rect x="196" y="12" width="4" height="4" fill="#6a3fa0"/><rect x="204" y="12" width="4" height="4" fill="#6a3fa0"/><rect x="196" y="16" width="8" height="4" fill="#6a3fa0"/><rect x="196" y="20" width="4" height="4" fill="#6a3fa0"/><rect x="204" y="20" width="4" height="4" fill="#6a3fa0"/><rect x="196" y="24" width="4" height="4" fill="#6a3fa0"/><rect x="208" y="24" width="4" height="4" fill="#6a3fa0"/><rect x="196" y="28" width="4" height="4" fill="#6a3fa0"/><rect x="212" y="28" width="4" height="4" fill="#6a3fa0"/><rect x="0" y="0" width="4" height="4" fill="#d9c2f5"/><rect x="0" y="4" width="4" height="4" fill="#d9c2f5"/><rect x="0" y="8" width="4" height="4" fill="#d9c2f5"/><rect x="0" y="12" width="4" height="4" fill="#d9c2f5"/><rect x="0" y="16" width="4" height="4" fill="#d9c2f5"/><rect x="0" y="20" width="4" height="4" fill="#d9c2f5"/><rect x="0" y="24" width="20" height="4" fill="#d9c2f5"/><rect x="24" y="0" width="20" height="4" fill="#d9c2f5"/><rect x="24" y="4" width="4" height="4" fill="#d9c2f5"/><rect x="24" y="8" width="16" height="4" fill="#d9c2f5"/><rect x="24" y="12" width="4" height="4" fill="#d9c2f5"/><rect x="24" y="16" width="4" height="4" fill="#d9c2f5"/><rect x="24" y="20" width="4" height="4" fill="#d9c2f5"/><rect x="24" y="24" width="20" height="4" fill="#d9c2f5"/><rect x="48" y="0" width="20" height="4" fill="#d9c2f5"/><rect x="56" y="4" width="4" height="4" fill="#d9c2f5"/><rect x="56" y="8" width="4" height="4" fill="#d9c2f5"/><rect x="56" y="12" width="4" height="4" fill="#d9c2f5"/><rect x="56" y="16" width="4" height="4" fill="#d9c2f5"/><rect x="56" y="20" width="4" height="4" fill="#d9c2f5"/><rect x="56" y="24" width="4" height="4" fill="#d9c2f5"/><rect x="76" y="0" width="16" height="4" fill="#d9c2f5"/><rect x="72" y="4" width="4" height="4" fill="#d9c2f5"/><rect x="72" y="8" width="4" height="4" fill="#d9c2f5"/><rect x="76" y="12" width="12" height="4" fill="#d9c2f5"/><rect x="88" y="16" width="4" height="4" fill="#d9c2f5"/><rect x="88" y="20" width="4" height="4" fill="#d9c2f5"/><rect x="72" y="24" width="16" height="4" fill="#d9c2f5"/><rect x="120" y="0" width="20" height="4" fill="#d9c2f5"/><rect x="128" y="4" width="4" height="4" fill="#d9c2f5"/><rect x="128" y="8" width="4" height="4" fill="#d9c2f5"/><rect x="128" y="12" width="4" height="4" fill="#d9c2f5"/><rect x="128" y="16" width="4" height="4" fill="#d9c2f5"/><rect x="128" y="20" width="4" height="4" fill="#d9c2f5"/><rect x="128" y="24" width="4" height="4" fill="#d9c2f5"/><rect x="148" y="0" width="12" height="4" fill="#d9c2f5"/><rect x="144" y="4" width="4" height="4" fill="#d9c2f5"/><rect x="160" y="4" width="4" height="4" fill="#d9c2f5"/><rect x="144" y="8" width="4" height="4" fill="#d9c2f5"/><rect x="160" y="8" width="4" height="4" fill="#d9c2f5"/><rect x="144" y="12" width="20" height="4" fill="#d9c2f5"/><rect x="144" y="16" width="4" height="4" fill="#d9c2f5"/><rect x="160" y="16" width="4" height="4" fill="#d9c2f5"/><rect x="144" y="20" width="4" height="4" fill="#d9c2f5"/><rect x="160" y="20" width="4" height="4" fill="#d9c2f5"/><rect x="144" y="24" width="4" height="4" fill="#d9c2f5"/><rect x="160" y="24" width="4" height="4" fill="#d9c2f5"/><rect x="168" y="0" width="4" height="4" fill="#d9c2f5"/><rect x="168" y="4" width="4" height="4" fill="#d9c2f5"/><rect x="168" y="8" width="4" height="4" fill="#d9c2f5"/><rect x="168" y="12" width="4" height="4" fill="#d9c2f5"/><rect x="168" y="16" width="4" height="4" fill="#d9c2f5"/><rect x="168" y="20" width="4" height="4" fill="#d9c2f5"/><rect x="168" y="24" width="20" height="4" fill="#d9c2f5"/><rect x="192" y="0" width="4" height="4" fill="#d9c2f5"/><rect x="208" y="0" width="4" height="4" fill="#d9c2f5"/><rect x="192" y="4" width="4" height="4" fill="#d9c2f5"/><rect x="204" y="4" width="4" height="4" fill="#d9c2f5"/><rect x="192" y="8" width="4" height="4" fill="#d9c2f5"/><rect x="200" y="8" width="4" height="4" fill="#d9c2f5"/><rect x="192" y="12" width="8" height="4" fill="#d9c2f5"/><rect x="192" y="16" width="4" height="4" fill="#d9c2f5"/><rect x="200" y="16" width="4" height="4" fill="#d9c2f5"/><rect x="192" y="20" width="4" height="4" fill="#d9c2f5"/><rect x="204" y="20" width="4" height="4" fill="#d9c2f5"/><rect x="192" y="24" width="4" height="4" fill="#d9c2f5"/><rect x="208" y="24" width="4" height="4" fill="#d9c2f5"/></svg>