<svg xmlns="http://www.w3.org/2000/svg" viewBox="0 0 351 45" width="351" height="45" shape-rendering="crispEdges" role="img" aria-label="HATE BEING MEDIOCRE"><rect x="6" y="12" width="3" height="3" fill="#d98fa8"/><rect x="18" y="12" width="3" height="3" fill="#d98fa8"/><rect x="6" y="15" width="3" height="3" fill="#d98fa8"/><rect x="18" y="15" width="3" height="3" fill="#d98fa8"/><rect x="6" y="18" width="3" height="3" fill="#d98fa8"/><rect x="18" y="18" width="3" height="3" fill="#d98fa8"/><rect x="6" y="21" width="15" height="3" fill="#d98fa8"/><rect x="6" y="24" width="3" height="3" fill="#d98fa8"/><rect x="18" y="24" width="3" height="3" fill="#d98fa8"/><rect x="6" y="27" width="3" height="3" fill="#d98fa8"/><rect x="18" y="27" width="3" height="3" fill="#d98fa8"/><rect x="6" y="30" width="3" height="3" fill="#d98fa8"/><rect x="18" y="30" width="3" height="3" fill="#d98fa8"/><rect x="27" y="12" width="9" height="3" fill="#d98fa8"/><rect x="24" y="15" width="3" height="3" fill="#d98fa8"/><rect x="36" y="15" width="3" height="3" fill="#d98fa8"/><rect x="24" y="18" width="3" height="3" fill="#d98fa8"/><rect x="36" y="18" width="3" height="3" fill="#d98fa8"/><rect x="24" y="21" width="15" height="3" fill="#d98fa8"/><rect x="24" y="24" width="3" height="3" fill="#d98fa8"/><rect x="36" y="24" width="3" height="3" fill="#d98fa8"/><rect x="24" y="27" width="3" height="3" fill="#d98fa8"/><rect x="36" y="27" width="3" height="3" fill="#d98fa8"/><rect x="24" y="30" width="3" height="3" fill="#d98fa8"/><rect x="36" y="30" width="3" height="3" fill="#d98fa8"/><rect x="42" y="12" width="15" height="3" fill="#d98fa8"/><rect x="48" y="15" width="3" height="3" fill="#d98fa8"/><rect x="48" y="18" width="3" height="3" fill="#d98fa8"/><rect x="48" y="21" width="3" height="3" fill="#d98fa8"/><rect x="48" y="24" width="3" height="3" fill="#d98fa8"/><rect x="48" y="27" width="3" height="3" fill="#d98fa8"/><rect x="48" y="30" width="3" height="3" fill="#d98fa8"/><rect x="60" y="12" width="15" height="3" fill="#d98fa8"/><rect x="60" y="15" width="3" height="3" fill="#d98fa8"/><rect x="60" y="18" width="12" height="3" fill="#d98fa8"/><rect x="60" y="21" width="3" height="3" fill="#d98fa8"/><rect x="60" y="24" width="3" height="3" fill="#d98fa8"/><rect x="60" y="27" width="3" height="3" fill="#d98fa8"/><rect x="60" y="30" width="15" height="3" fill="#d98fa8"/><rect x="96" y="12" width="12" height="3" fill="#d98fa8"/><rect x="96" y="15" width="3" height="3" fill="#d98fa8"/><rect x="108" y="15" width="3" height="3" fill="#d98fa8"/><rect x="96" y="18" width="12" height="3" fill="#d98fa8"/><rect x="96" y="21" width="3" height="3" fill="#d98fa8"/><rect x="108" y="21" width="3" height="3" fill="#d98fa8"/><rect x="96" y="24" width="3" height="3" fill="#d98fa8"/><rect x="108" y="24" width="3" height="3" fill="#d98fa8"/><rect x="96" y="27" width="3" height="3" fill="#d98fa8"/><rect x="108" y="27" width="3" height="3" fill="#d98fa8"/><rect x="96" y="30" width="12" height="3" fill="#d98fa8"/><rect x="114" y="12" width="15" height="3" fill="#d98fa8"/><rect x="114" y="15" width="3" height="3" fill="#d98fa8"/><rect x="114" y="18" width="12" height="3" fill="#d98fa8"/><rect x="114" y="21" width="3" height="3" fill="#d98fa8"/><rect x="114" y="24" width="3" height="3" fill="#d98fa8"/><rect x="114" y="27" width="3" height="3" fill="#d98fa8"/><rect x="114" y="30" width="15" height="3" fill="#d98fa8"/><rect x="132" y="12" width="15" height="3" fill="#d98fa8"/><rect x="138" y="15" width="3" height="3" fill="#d98fa8"/><rect x="138" y="18" width="3" height="3" fill="#d98fa8"/><rect x="138" y="21" width="3" height="3" fill="#d98fa8"/><rect x="138" y="24" width="3" height="3" fill="#d98fa8"/><rect x="138" y="27" width="3" height="3" fill="#d98fa8"/><rect x="132" y="30" width="15" height="3" fill="#d98fa8"/><rect x="150" y="12" width="3" height="3" fill="#d98fa8"/><rect x="162" y="12" width="3" height="3" fill="#d98fa8"/><rect x="150" y="15" width="6" height="3" fill="#d98fa8"/><rect x="162" y="15" width="3" height="3" fill="#d98fa8"/><rect x="150" y="18" width="3" height="3" fill="#d98fa8"/><rect x="156" y="18" width="3" height="3" fill="#d98fa8"/><rect x="162" y="18" width="3" height="3" fill="#d98fa8"/><rect x="150" y="21" width="3" height="3" fill="#d98fa8"/><rect x="159" y="21" width="6" height="3" fill="#d98fa8"/><rect x="150" y="24" width="3" height="3" fill="#d98fa8"/><rect x="162" y="24" width="3" height="3" fill="#d98fa8"/><rect x="150" y="27" width="3" height="3" fill="#d98fa8"/><rect x="162" y="27" width="3" height="3" fill="#d98fa8"/><rect x="150" y="30" width="3" height="3" fill="#d98fa8"/><rect x="162" y="30" width="3" height="3" fill="#d98fa8"/><rect x="171" y="12" width="9" height="3" fill="#d98fa8"/><rect x="168" y="15" width="3" height="3" fill="#d98fa8"/><rect x="180" y="15" width="3" height="3" fill="#d98fa8"/><rect x="168" y="18" width="3" height="3" fill="#d98fa8"/><rect x="168" y="21" width="3" height="3" fill="#d98fa8"/><rect x="174" y="21" width="9" height="3" fill="#d98fa8"/><rect x="168" y="24" width="3" height="3" fill="#d98fa8"/><rect x="180" y="24" width="3" height="3" fill="#d98fa8"/><rect x="168" y="27" width="3" height="3" fill="#d98fa8"/><rect x="180" y="27" width="3" height="3" fill="#d98fa8"/><rect x="171" y="30" width="12" height="3" fill="#d98fa8"/><rect x="204" y="12" width="3" height="3" fill="#d98fa8"/><rect x="216" y="12" width="3" height="3" fill="#d98fa8"/><rect x="204" y="15" width="6" height="3" fill="#d98fa8"/><rect x="213" y="15" width="6" height="3" fill="#d98fa8"/><rect x="204" y="18" width="3" height="3" fill="#d98fa8"/><rect x="210" y="18" width="3" height="3" fill="#d98fa8"/><rect x="216" y="18" width="3" height="3" fill="#d98fa8"/><rect x="204" y="21" width="3" height="3" fill="#d98fa8"/><rect x="210" y="21" width="3" height="3" fill="#d98fa8"/><rect x="216" y="21" width="3" height="3" fill="#d98fa8"/><rect x="204" y="24" width="3" height="3" fill="#d98fa8"/><rect x="216" y="24" width="3" height="3" fill="#d98fa8"/><rect x="204" y="27" width="3" height="3" fill="#d98fa8"/><rect x="216" y="27" width="3" height="3" fill="#d98fa8"/><rect x="204" y="30" width="3" height="3" fill="#d98fa8"/><rect x="216" y="30" width="3" height="3" fill="#d98fa8"/><rect x="222" y="12" width="15" height="3" fill="#d98fa8"/><rect x="222" y="15" width="3" height="3" fill="#d98fa8"/><rect x="222" y="18" width="12" height="3" fill="#d98fa8"/><rect x="222" y="21" width="3" height="3" fill="#d98fa8"/><rect x="222" y="24" width="3" height="3" fill="#d98fa8"/><rect x="222" y="27" width="3" height="3" fill="#d98fa8"/><rect x="222" y="30" width="15" height="3" fill="#d98fa8"/><rect x="240" y="12" width="12" height="3" fill="#d98fa8"/><rect x="240" y="15" width="3" height="3" fill="#d98fa8"/><rect x="252" y="15" width="3" height="3" fill="#d98fa8"/><rect x="240" y="18" width="3" height="3" fill="#d98fa8"/><rect x="252" y="18" width="3" height="3" fill="#d98fa8"/><rect x="240" y="21" width="3" height="3" fill="#d98fa8"/><rect x="252" y="21" width="3" height="3" fill="#d98fa8"/><rect x="240" y="24" width="3" height="3" fill="#d98fa8"/><rect x="252" y="24" width="3" height="3" fill="#d98fa8"/><rect x="240" y="27" width="3" height="3" fill="#d98fa8"/><rect x="252" y="27" width="3" height="3" fill="#d98fa8"/><rect x="240" y="30" width="12" height="3" fill="#d98fa8"/><rect x="258" y="12" width="15" height="3" fill="#d98fa8"/><rect x="264" y="15" width="3" height="3" fill="#d98fa8"/><rect x="264" y="18" width="3" height="3" fill="#d98fa8"/><rect x="264" y="21" width="3" height="3" fill="#d98fa8"/><rect x="264" y="24" width="3" height="3" fill="#d98fa8"/><rect x="264" y="27" width="3" height="3" fill="#d98fa8"/><rect x="258" y="30" width="15" height="3" fill="#d98fa8"/><rect x="279" y="12" width="9" height="3" fill="#d98fa8"/><rect x="276" y="15" width="3" height="3" fill="#d98fa8"/><rect x="288" y="15" width="3" height="3" fill="#d98fa8"/><rect x="276" y="18" width="3" height="3" fill="#d98fa8"/><rect x="288" y="18" width="3" height="3" fill="#d98fa8"/><rect x="276" y="21" width="3" height="3" fill="#d98fa8"/><rect x="288" y="21" width="3" height="3" fill="#d98fa8"/><rect x="276" y="24" width="3" height="3" fill="#d98fa8"/><rect x="288" y="24" width="3" height="3" fill="#d98fa8"/><rect x="276" y="27" width="3" height="3" fill="#d98fa8"/><rect x="288" y="27" width="3" height="3" fill="#d98fa8"/><rect x="279" y="30" width="9" height="3" fill="#d98fa8"/><rect x="297" y="12" width="9" height="3" fill="#d98fa8"/><rect x="294" y="15" width="3" height="3" fill="#d98fa8"/><rect x="306" y="15" width="3" height="3" fill="#d98fa8"/><rect x="294" y="18" width="3" height="3" fill="#d98fa8"/><rect x="294" y="21" width="3" height="3" fill="#d98fa8"/><rect x="294" y="24" width="3" height="3" fill="#d98fa8"/><rect x="294" y="27" width="3" height="3" fill="#d98fa8"/><rect x="306" y="27" width="3" height="3" fill="#d98fa8"/><rect x="297" y="30" width="9" height="3" fill="#d98fa8"/><rect x="312" y="12" width="12" height="3" fill="#d98fa8"/><rect x="312" y="15" width="3" height="3" fill="#d98fa8"/><rect x="324" y="15" width="3" height="3" fill="#d98fa8"/><rect x="312" y="18" width="3" height="3" fill="#d98fa8"/><rect x="324" y="18" width="3" height="3" fill="#d98fa8"/><rect x="312" y="21" width="12" height="3" fill="#d98fa8"/><rect x="312" y="24" width="3" height="3" fill="#d98fa8"/><rect x="318" y="24" width="3" height="3" fill="#d98fa8"/><rect x="312" y="27" width="3" height="3" fill="#d98fa8"/><rect x="321" y="27" width="3" height="3" fill="#d98fa8"/><rect x="312" y="30" width="3" height="3" fill="#d98fa8"/><rect x="324" y="30" width="3" height="3" fill="#d98fa8"/><rect x="330" y="12" width="15" height="3" fill="#d98fa8"/><rect x="330" y="15" width="3" height="3" fill="#d98fa8"/><rect x="330" y="18" width="12" height="3" fill="#d98fa8"/><rect x="330" y="21" width="3" height="3" fill="#d98fa8"/><rect x="330" y="24" width="3" height="3" fill="#d98fa8"/><rect x="330" y="27" width="3" height="3" fill="#d98fa8"/><rect x="330" y="30" width="15" height="3" fill="#d98fa8"/></svg>